<?xml version="1.0" encoding="UTF-8" standalone="no"?>
<!-- Created with Inkscape (http://www.inkscape.org/) -->

<svg
   width="47.910786mm"
   height="46.417858mm"
   viewBox="0 0 181.08014 175.43758"
   version="1.1"
   id="svg1"
   xmlns:inkscape="http://www.inkscape.org/namespaces/inkscape"
   xmlns:sodipodi="http://sodipodi.sourceforge.net/DTD/sodipodi-0.dtd"
   xmlns="http://www.w3.org/2000/svg"
   xmlns:svg="http://www.w3.org/2000/svg">
  <sodipodi:namedview
     id="namedview1"
     pagecolor="#ffffff"
     bordercolor="#000000"
     borderopacity="0.25"
     inkscape:showpageshadow="2"
     inkscape:pageopacity="0.0"
     inkscape:pagecheckerboard="0"
     inkscape:deskcolor="#d1d1d1"
     inkscape:document-units="mm" />
  <defs
     id="defs1" />
  <g
     inkscape:label="Layer 1"
     inkscape:groupmode="layer"
     id="layer1"
     transform="translate(-219.33011,-118.10089)">
    <g
       id="g4"
       transform="translate(60.758848,-48.607078)">
      <path
         d="m 234.42383,173.73633 c -3.40398,0 -6.39058,1.30176 -8.96093,3.9043 -2.57036,2.55249 -3.85547,5.93066 -3.85547,10.13477 v 29.20312 c 13.12963,-15.16482 19.69531,-27.30125 19.69531,-36.41016 0,-4.55445 -2.29396,-6.83203 -6.87891,-6.83203 z"
         style="opacity:1;fill:#fc7100;stroke:#fc7100;stroke-width:0.755906;stroke-linecap:square;stroke-linejoin:bevel;stroke-miterlimit:4.9;paint-order:markers stroke fill"
         id="path4" />
      <path
         d="m 249.11133,167.08594 c -49.79543,-3.6e-4 -90.16265,39.10415 -90.16211,87.3418 5.7e-4,48.23689 40.36747,87.34021 90.16211,87.33985 49.79465,3.7e-4 90.16155,-39.10296 90.16212,-87.33985 -0.007,-0.36724 -0.0159,-0.73443 -0.0274,-1.10156 -8.02694,8.68505 -16.12276,13.04492 -24.28516,13.04492 -2.36195,0 -4.20156,-0.54931 -5.52148,-1.65039 -1.25045,-1.15113 -1.87695,-3.87937 -1.87695,-8.18359 v -17.49219 c 0,-1.85182 -1.00688,-2.77735 -3.02149,-2.77735 -1.18097,0 -1.86047,2.05894 -3.18039,2.75962 -1.31991,0.65064 -2.93498,2.41203 -4.4633,3.7634 -1.45886,1.35133 -3.05882,2.05963 -5.55971,5.16267 -2.50089,3.053 -4.38975,5.46023 -4.51144,4.30455 l 1.70884,16.22837 -12.12876,-0.68736 v -27.40234 c 0,-2.25221 -1.07693,-1.29032 -3.23047,-1.29032 -1.8062,0 -2.45681,-0.24722 -4.61036,1.15416 -2.15354,1.40137 -5.56902,4.58734 -8.34779,8.04073 -2.77877,3.45339 -4.54771,3.50632 -4.54771,3.95676 v 11.86133 l -10.41992,3.67968 v -22.08789 c -8.01862,9.51787 -15.8992,14.28516 -23.64258,14.28516 v 25.97461 c 0,5.75562 -2.22196,10.36108 -6.66797,13.81445 -4.37655,3.50343 -9.83125,5.25391 -16.36133,5.25391 -6.87743,0 -17.95627,1.07694 -21.84653,-3.22727 l 14.24106,-11.01868 1.66602,2.75962 c -0.41682,0.95093 -0.625,1.67725 -0.625,2.17774 0,1.90185 0.36183,5.04126 2.50195,4.88086 2.23686,-0.16765 3.98305,-0.47663 6.45898,-1.3923 7.1877,-2.65819 10.21289,-1.56203 10.21289,-11.52177 V 259.9961 c -3.47344,-0.40039 -7.01652,-1.5271 -10.6289,-3.37891 0.69469,-2.1521 2.25804,-4.30297 4.68945,-6.45507 1.94513,2.2522 3.92486,3.65258 5.93945,4.20312 v -19.89453 c -2.77875,4.85474 -6.25178,9.33349 -10.41992,13.4375 l -3.02343,-2.02539 c 1.31991,-1.50147 2.64102,-3.07886 3.96093,-4.73047 1.31991,-1.70166 3.22959,-4.42993 5.73047,-8.18359 2.50088,-3.75367 3.75195,-5.90454 3.75195,-6.45508 v -33.70899 c 0,-5.85572 2.67433,-11.03466 8.02344,-15.53906 5.41858,-4.5044 11.56594,-6.75781 18.44336,-6.75781 8.12787,0 12.19336,2.72826 12.19336,8.18359 0,4.8047 -1.87563,10.38598 -5.62695,16.74219 -3.75132,6.35621 -11.28984,15.98972 -22.61328,28.90234 l 0.56961,26.82395 c 3.26504,-0.15014 5.64799,1.23824 8.28781,-0.013 0.88964,-0.42167 1.21527,-0.59533 2.38895,-1.48311 5.57643,-5.67399 10.2303,-9.84582 12.39621,-16.32395 l 10.60979,-5.23814 -0.18987,17.24986 c 7.91949,-9.75958 15.3879,-14.63867 22.4043,-14.63867 2.9177,0 5.10559,0.82494 6.56445,2.47656 1.45885,1.65162 2.1875,5.70577 2.1875,12.16211 4.37656,-5.45536 8.23188,-9.26 11.56641,-11.41211 3.40399,-2.15211 6.94703,-3.22656 10.6289,-3.22656 5.97436,0 8.96289,2.92745 8.96289,8.7832 v 13.8125 c 0,3.50344 0.24223,5.65625 0.72852,6.45703 0.48628,0.75074 1.32097,1.12695 2.50195,1.12695 3.12612,0 8.16245,-3.2795 15.10938,-9.83593 l 2.9082,1.75781 c -0.90706,-47.59101 -40.98482,-85.71534 -90.1211,-85.72852 z"
         style="opacity:1;fill:#fc7100;stroke:#fc7100;stroke-width:0.755906;stroke-linecap:square;stroke-linejoin:bevel;stroke-miterlimit:4.9;paint-order:markers stroke fill"
         id="path3"
         sodipodi:nodetypes="cscccscssscccsccsssssccccscscccssssccccccccssscsssccsccccssccssscscccc" />
    </g>
  </g>
</svg>
